<?xml version="1.0" encoding="UTF-8" standalone="no"?>
<!-- Created with Inkscape (http://www.inkscape.org/) -->

<svg
   xmlns:dc="http://purl.org/dc/elements/1.1/"
   xmlns:cc="http://creativecommons.org/ns#"
   xmlns:rdf="http://www.w3.org/1999/02/22-rdf-syntax-ns#"
   xmlns:svg="http://www.w3.org/2000/svg"
   xmlns="http://www.w3.org/2000/svg"
   xmlns:sodipodi="http://sodipodi.sourceforge.net/DTD/sodipodi-0.dtd"
   xmlns:inkscape="http://www.inkscape.org/namespaces/inkscape"
   width="2024"
   height="2024"
   viewBox="0 0 535.51668 535.51668"
   version="1.1"
   id="svg8"
   inkscape:version="0.92.4 (5da689c313, 2019-01-14)"
   sodipodi:docname="iconFoodEx.svg">
  <defs
     id="defs2" />
  <sodipodi:namedview
     id="base"
     pagecolor="#ffffff"
     bordercolor="#666666"
     borderopacity="1.0"
     inkscape:pageopacity="0.0"
     inkscape:pageshadow="2"
     inkscape:zoom="0.27322134"
     inkscape:cx="1280.3775"
     inkscape:cy="1162.9131"
     inkscape:document-units="mm"
     inkscape:current-layer="layer1"
     showgrid="false"
     units="px"
     showborder="true"
     inkscape:showpageshadow="false"
     borderlayer="false"
     objecttolerance="20"
     showguides="true"
     inkscape:guide-bbox="true"
     inkscape:window-width="1366"
     inkscape:window-height="705"
     inkscape:window-x="-8"
     inkscape:window-y="-8"
     inkscape:window-maximized="1"
     inkscape:pagecheckerboard="true" />
  <metadata
     id="metadata5">
    <rdf:RDF>
      <cc:Work
         rdf:about="">
        <dc:format>image/svg+xml</dc:format>
        <dc:type
           rdf:resource="http://purl.org/dc/dcmitype/StillImage" />
        <dc:title></dc:title>
      </cc:Work>
    </rdf:RDF>
  </metadata>
  <g
     inkscape:label="Camada 1"
     inkscape:groupmode="layer"
     id="layer1"
     transform="translate(0,238.51667)">
    <path
       style="fill:#d50000;fill-opacity:0.92156863;stroke-width:6.28002739;stroke-miterlimit:4;stroke-dasharray:none"
       d="M 262.25738,-236.55171 A 200.93181,200.20772 0 0 0 75.886881,-36.887283 200.93181,200.20772 0 0 0 276.81829,163.32004 200.93181,200.20772 0 0 0 475.96941,-11.778969 V -61.537346 A 200.93181,200.20772 0 0 0 287.72084,-236.55171 Z"
       id="rect3793"
       inkscape:connector-curvature="0" />
    <path
       inkscape:connector-curvature="0"
       d="m 126.70287,15.302075 h 300.51717 v 30.05213 H 126.70287 Z M 304.60903,-123.08557 c 1.50268,-3.60655 2.40424,-7.66346 2.40424,-11.87065 0,-16.52843 -13.52326,-30.05177 -30.0517,-30.05177 -16.52847,0 -30.05173,13.52334 -30.05173,30.05177 0,4.20719 0.90167,8.2641 2.40424,11.87065 C 190.563,-110.91531 145.78592,-60.878894 141.72894,0.27655076 H 412.19438 C 408.13741,-60.878894 363.36033,-110.91531 304.60923,-123.08557 Z"
       id="path3765"
       style="fill:#ffffff;fill-opacity:1;fill-rule:nonzero;stroke:#000000;stroke-width:7.09078932;stroke-linecap:round;stroke-linejoin:round;stroke-miterlimit:4;stroke-dasharray:none;stroke-opacity:1"
       inkscape:export-xdpi="96"
       inkscape:export-ydpi="96" />
    <text
       xml:space="preserve"
       style="font-style:normal;font-weight:normal;font-size:10.58333302px;line-height:1.25;font-family:sans-serif;letter-spacing:0px;word-spacing:0px;fill:#000000;fill-opacity:1;stroke:none;stroke-width:0.26458332"
       x="9.7887468"
       y="288.68124"
       id="text4602"><tspan
         sodipodi:role="line"
         id="tspan4600"
         x="9.7887468"
         y="298.33673"
         style="stroke-width:0.26458332" /></text>
    <flowRoot
       xml:space="preserve"
       id="flowRoot825"
       style="fill:black;fill-opacity:1;stroke:none;font-family:sans-serif;font-style:normal;font-weight:normal;font-size:40px;line-height:1.25;letter-spacing:0px;word-spacing:0px"><flowRegion
         id="flowRegion827"><rect
           id="rect829"
           width="2027.66"
           height="461.16455"
           x="-3.6600363"
           y="1559.1754" /></flowRegion><flowPara
         id="flowPara831" /></flowRoot>    <g
       aria-label="FoodEx"
       transform="matrix(0.42611408,0,0,0.42611408,4.0059968,-539.40135)"
       style="font-style:normal;font-variant:normal;font-weight:normal;font-stretch:normal;font-size:341.33334351px;line-height:1.25;font-family:sans-serif;-inkscape-font-specification:'sans-serif, Normal';font-variant-ligatures:normal;font-variant-caps:normal;font-variant-numeric:normal;font-feature-settings:normal;text-align:start;letter-spacing:0px;word-spacing:0px;writing-mode:lr-tb;text-anchor:start;fill:#000000;fill-opacity:1;stroke:none"
       id="flowRoot833">
      <path
         d="M 199.15365,1688.3508 H 73.653648 v 70 H 181.48698 v 29.3333 H 73.653648 v 119.5 H 40.653647 V 1659.0175 H 199.15365 Z"
         style="font-style:normal;font-variant:normal;font-weight:normal;font-stretch:normal;font-size:341.33334351px;font-family:sans-serif;-inkscape-font-specification:'sans-serif, Normal';font-variant-ligatures:normal;font-variant-caps:normal;font-variant-numeric:normal;font-feature-settings:normal;text-align:start;writing-mode:lr-tb;text-anchor:start"
         id="path28"
         inkscape:connector-curvature="0" />
      <path
         d="m 384.82032,1814.1841 q 0,45.5 -23.33334,71.8334 -23.33333,26.3333 -62.5,26.3333 -39.5,0 -62.83333,-26.3333 -23.16667,-26.3334 -23.16667,-71.8334 0,-45.5 23.16667,-71.8333 23.33333,-26.5 62.83333,-26.5 39.16667,0 62.5,26.5 23.33334,26.3333 23.33334,71.8333 z m -32.33334,0 q 0,-36.1666 -14.16666,-53.6666 -14.16667,-17.6667 -39.33334,-17.6667 -25.5,0 -39.66667,17.6667 -14,17.5 -14,53.6666 0,35 14.16667,53.1667 14.16667,18 39.5,18 25,0 39.16667,-17.8333 14.33333,-18 14.33333,-53.3334 z"
         style="font-style:normal;font-variant:normal;font-weight:normal;font-stretch:normal;font-size:341.33334351px;font-family:sans-serif;-inkscape-font-specification:'sans-serif, Normal';font-variant-ligatures:normal;font-variant-caps:normal;font-variant-numeric:normal;font-feature-settings:normal;text-align:start;writing-mode:lr-tb;text-anchor:start"
         id="path30"
         inkscape:connector-curvature="0" />
      <path
         d="m 592.15366,1814.1841 q 0,45.5 -23.33333,71.8334 -23.33334,26.3333 -62.5,26.3333 -39.50001,0 -62.83334,-26.3333 -23.16667,-26.3334 -23.16667,-71.8334 0,-45.5 23.16667,-71.8333 23.33333,-26.5 62.83334,-26.5 39.16666,0 62.5,26.5 23.33333,26.3333 23.33333,71.8333 z m -32.33333,0 q 0,-36.1666 -14.16667,-53.6666 -14.16667,-17.6667 -39.33333,-17.6667 -25.5,0 -39.66667,17.6667 -14,17.5 -14,53.6666 0,35 14.16666,53.1667 14.16667,18 39.50001,18 25,0 39.16666,-17.8333 14.33334,-18 14.33334,-53.3334 z"
         style="font-style:normal;font-variant:normal;font-weight:normal;font-stretch:normal;font-size:341.33334351px;font-family:sans-serif;-inkscape-font-specification:'sans-serif, Normal';font-variant-ligatures:normal;font-variant-caps:normal;font-variant-numeric:normal;font-feature-settings:normal;text-align:start;writing-mode:lr-tb;text-anchor:start"
         id="path32"
         inkscape:connector-curvature="0" />
      <path
         d="M 791.82034,1907.1841 H 760.487 v -19.5 q -13.5,11.6667 -28.16666,18.1667 -14.66667,6.5 -31.83334,6.5 -33.33333,0 -53,-25.6667 -19.5,-25.6666 -19.5,-71.1666 0,-23.6667 6.66667,-42.1667 6.83333,-18.5 18.33333,-31.5 11.33333,-12.6667 26.33333,-19.3333 15.16667,-6.6667 31.33334,-6.6667 14.66667,0 26,3.1667 11.33333,3 23.83333,9.5 v -80.6667 h 31.33334 z M 760.487,1861.3508 v -106.8333 q -12.66666,-5.6667 -22.66666,-7.8334 -10,-2.1666 -21.83334,-2.1666 -26.33333,0 -41,18.3333 -14.66667,18.3333 -14.66667,52 0,33.1667 11.33334,50.5 11.33333,17.1667 36.33333,17.1667 13.33334,0 27,-5.8334 13.66667,-6 25.5,-15.3333 z"
         style="font-style:normal;font-variant:normal;font-weight:normal;font-stretch:normal;font-size:341.33334351px;font-family:sans-serif;-inkscape-font-specification:'sans-serif, Normal';font-variant-ligatures:normal;font-variant-caps:normal;font-variant-numeric:normal;font-feature-settings:normal;text-align:start;writing-mode:lr-tb;text-anchor:start"
         id="path34"
         inkscape:connector-curvature="0" />
      <path
         d="M 1019.487,1907.1841 H 855.98702 V 1659.0175 H 1019.487 v 29.3333 H 888.98702 v 68 H 1019.487 v 29.3333 H 888.98702 v 92.1667 H 1019.487 Z"
         style="font-style:normal;font-variant:normal;font-weight:normal;font-stretch:normal;font-size:341.33334351px;font-family:sans-serif;-inkscape-font-specification:'sans-serif, Normal';font-variant-ligatures:normal;font-variant-caps:normal;font-variant-numeric:normal;font-feature-settings:normal;text-align:start;writing-mode:lr-tb;text-anchor:start"
         id="path36"
         inkscape:connector-curvature="0" />
      <path
         d="m 1230.6537,1907.1841 h -39.5 l -52.8333,-71.5 -53.1667,71.5 h -36.5 l 72.6667,-92.8333 -72,-93.3333 h 39.5 l 52.5,70.3333 52.6666,-70.3333 h 36.6667 l -73.1667,91.6666 z"
         style="font-style:normal;font-variant:normal;font-weight:normal;font-stretch:normal;font-size:341.33334351px;font-family:sans-serif;-inkscape-font-specification:'sans-serif, Normal';font-variant-ligatures:normal;font-variant-caps:normal;font-variant-numeric:normal;font-feature-settings:normal;text-align:start;writing-mode:lr-tb;text-anchor:start"
         id="path38"
         inkscape:connector-curvature="0" />
    </g>
    <path
       style="fill:#000000;fill-opacity:0.15686275;stroke:none;stroke-width:8.20812988;stroke-linecap:butt;stroke-linejoin:miter;stroke-miterlimit:4;stroke-dasharray:none;stroke-opacity:1;opacity:1"
       d="m 126.70294,44.332175 122.83673,117.190195 10.91477,1.2433 12.72577,0.5752 12.04735,-0.24111 10.48681,-0.6891 8.15256,-0.94429 7.48353,-1.13701 12.47592,-2.50304 12.66688,-3.62377 11.54305,-3.81158 11.38006,-4.73773 10.65292,-5.2233 13.19166,-7.64747 11.0447,-7.38591 9.81731,-7.4233 13.69574,-12.42709 7.27035,-7.518588 7.13287,-8.133662 6.41661,-8.401205 5.88297,-8.33365 5.71468,-9.10651 6.68837,-12.69618 -28.97696,-39.44093 v 0 l -0.73022,32.4172 z"
       id="path2822"
       inkscape:connector-curvature="0"
       sodipodi:nodetypes="ccccccccccccccccccccccccccc" />
  </g>
</svg>
